# xmcd
#
# Track frame offsets: 
#        157
#        12520
#        26395
#        40315
#        51865
#        71782
#        85685
#        96445
#        108142
#        120892
#        131917
#        148425
#        174125
#        188307
#        199525
#        214780
#        228935
#        245970
#        257562
#
# Disc length: 3715 seconds
#
# Revision: 0
# Processed by: cddbd v1.4b42PL1 Copyright (c) Steve Scherf et al.
# Submitted via: ExactAudioCopy v0.90a11
#
DISCID=050e8113
DTITLE=Anson Funderburgh and The Rockets - Thru the Years - A RETROSPECT
DTITLE=IVE
DYEAR=1900
DGENRE=
TTITLE0=Come On
TTITLE1=Talk To You By Hand
TTITLE2=Keep What I've Got
TTITLE3=The Blues Seem To Follow Me
TTITLE4=Tomorrow Will Find Me The Same Way
TTITLE5=My Heart Cries Out For You
TTITLE6=Look What You're Doing To Me
TTITLE7=Hard-Hearted Woman
TTITLE8=I'm Your Professor
TTITLE9=I'll Be True
TTITLE10=A Man Needs His Loving
TTITLE11=Changing Neighborhoods
TTITLE12=Tell Me What Have I Done Wrong?
TTITLE13=I Done Quit Getting Sloppy Drunk
TTITLE14=Since We've Been Together
TTITLE15=Make A Little Love Tonight
TTITLE16=Tell Me What I Want To Hear
TTITLE17=Meanstreak
TTITLE18=Down At J.J.'S
EXTD=
EXTT0=
EXTT1=
EXTT2=
EXTT3=
EXTT4=
EXTT5=
EXTT6=
EXTT7=
EXTT8=
EXTT9=
EXTT10=
EXTT11=
EXTT12=
EXTT13=
EXTT14=
EXTT15=
EXTT16=
EXTT17=
EXTT18=
PLAYORDER=
